#!OML:ASF H:\Pregnant\Project 1\Capture day 1\Session 1\femalepreg.ASF
:FULLY-SPECIFIED
:DEGREES
406
root -0.757189 16.1933 -17.2653 14.4129 -7.00066 1.24588
lowerback -7.90126 3.98065 13.4119
upperback -5.79986 4.46531 1.5489
thorax -0.85942 1.89739 -5.5038
lowerneck -16.2086 4.44141 3.81487
upperneck 26.8307 9.13181 -12.6671
head 12.3974 2.92831 -4.02229
rclavicle -3.68746e-014 4.6118e-014
rhumerus -29.8161 8.20284 -83.6858
rradius 33.7968
rwrist -20.7906
rhand -21.271 -22.2879
rfingers 7.12502
rthumb 5.11268 -52.2062
lclavicle -3.68746e-014 4.6118e-014
lhumerus -50.0783 -5.08754 86.495
lradius 28.5448
lwrist 32.3356
lhand 4.8877 4.67959
lfingers 7.12502
lthumb 30.2628 32.2189
rfemur -27.0052 14.3708 19.4157
rtibia 35.5304
rfoot -16.5458 -9.74222
rtoes -18.1854
lfemur -42.38 -2.45795 -21.6836
ltibia 44.1554
lfoot -7.36546 4.55301
ltoes -22.6182
407
root -0.754677 16.1952 -17.3283 14.4709 -6.99481 1.33687
lowerback -7.99462 3.90052 13.3742
upperback -5.83065 4.34842 1.61932
thorax -0.870593 1.83884 -5.41641
lowerneck -16.2979 4.4925 3.83135
upperneck 26.87 9.1836 -12.5963
head 12.4335 2.95641 -3.98952
rclavicle -9.93923e-017 -3.49861e-014
rhumerus -30.2389 7.87191 -83.4148
rradius 33.1702
rwrist -21.0312
rhand -21.2488 -22.6563
rfingers 7.12502
rthumb 5.13411 -52.5741
lclavicle -9.93923e-017 -3.49861e-014
lhumerus -50.0198 -5.50929 86.5746
lradius 28.8678
lwrist 32.0163
lhand 4.34432 4.37005
lfingers 7.12502
lthumb 29.7444 32.0033
rfemur -27.481 14.4333 19.2411
rtibia 35.7692
rfoot -16.4154 -9.77463
rtoes -18.1368
lfemur -42.1994 -2.40952 -21.9195
ltibia 45.2112
lfoot -7.5874 3.79747
ltoes -22.6843
408
root -0.752257 16.1965 -17.3915 14.5375 -6.98983 1.4273
lowerback -8.08758 3.81316 13.308
upperback -5.86872 4.22462 1.69312
thorax -0.892274 1.77677 -5.31097
lowerneck -16.3925 4.54475 3.83989
upperneck 26.9157 9.23938 -12.5229
head 12.4733 2.98532 -3.95376
rclavicle 9.14409e-015 6.36111e-014
rhumerus -30.6371 7.52372 -83.1218
rradius 32.4537
rwrist -21.178
rhand -21.219 -23.0223
rfingers 7.12502
rthumb 5.16285 -52.9394
lclavicle 9.14409e-015 6.36111e-014
lhumerus -49.9412 -5.85621 86.5912
lradius 29.165
lwrist 31.8022
lhand 3.61139 4.03254
lfingers 7.12502
lthumb 29.0446 31.7886
rfemur -27.973 14.4926 19.0647
rtibia 36.0177
rfoot -16.2884 -9.805
rtoes -18.092
lfemur -41.9899 -2.37266 -22.1489
ltibia 46.2165
lfoot -7.79116 3.0169
ltoes -22.7134
409
root -0.750082 16.1971 -17.4553 14.6232 -6.97344 1.51469
lowerback -8.189 3.71958 13.217
upperback -5.91792 4.09397 1.7674
thorax -0.923053 1.71104 -5.19217
lowerneck -16.4838 4.59646 3.85838
upperneck 26.962 9.29497 -12.4609
head 12.5138 3.01388 -3.92419
rclavicle 1.39149e-015 2.22639e-014
rhumerus -31.018 7.14949 -82.8084
rradius 31.6614
rwrist -21.216
rhand -21.1819 -23.331
rfingers 7.12502
rthumb 5.19876 -53.2472
lclavicle 1.39149e-015 2.22639e-014
lhumerus -49.8446 -6.14523 86.5531
lradius 29.446
lwrist 31.7082
lhand 2.70348 3.72887
lfingers 7.12502
lthumb 28.1772 31.6312
rfemur -28.4919 14.5431 18.8893
rtibia 36.2748
rfoot -16.1621 -9.83851
rtoes -18.0437
lfemur -41.7699 -2.3574 -22.3668
ltibia 47.175
lfoot -7.97389 2.2233
ltoes -22.7012
410
root -0.747987 16.1974 -17.5191 14.7232 -6.95461 1.59397
lowerback -8.29992 3.62341 13.1108
upperback -5.97397 3.96012 1.84214
thorax -0.956501 1.64381 -5.06458
lowerneck -16.572 4.64792 3.88358
upperneck 27.0046 9.35105 -12.41
head 12.5533 3.04224 -3.89988
rclavicle 2.8625e-014 -2.38542e-014
rhumerus -31.3911 6.75492 -82.4769
rradius 30.8156
rwrist -21.1477
rhand -21.1621 -23.5506
rfingers 7.12502
rthumb 5.2178 -53.4664
lclavicle 2.8625e-014 -2.38542e-014
lhumerus -49.7278 -6.38595 86.4696
lradius 29.7076
lwrist 31.7383
lhand 1.64525 3.44247
lfingers 7.12502
lthumb 27.1653 31.5071
rfemur -29.0275 14.5881 18.7191
rtibia 36.5352
rfoot -16.0386 -9.86773
rtoes -17.9915
lfemur -41.5302 -2.35823 -22.5716
ltibia 48.0878
lfoot -8.14196 1.43964
ltoes -22.6317
411
root -0.746157 16.197 -17.5834 14.8512 -6.92151 1.66475
lowerback -8.43195 3.52295 12.9895
upperback -6.03991 3.81925 1.91704
thorax -0.99 1.57321 -4.92849
lowerneck -16.6569 4.69956 3.9136
upperneck 27.0395 9.40765 -12.3682
head 12.5901 3.07058 -3.87957
rclavicle 3.20043e-014 1.43125e-014
rhumerus -31.7567 6.33614 -82.1258
rradius 29.9343
rwrist -20.9588
rhand -21.1601 -23.7169
rfingers 7.12502
rthumb 5.21972 -53.6326
lclavicle 3.20043e-014 1.43125e-014
lhumerus -49.5854 -6.58856 86.348
lradius 29.9478
lwrist 31.8918
lhand 0.451388 3.14296
lfingers 7.12502
lthumb 26.0227 31.3809
rfemur -29.5965 14.623 18.5534
rtibia 36.7992
rfoot -15.9126 -9.89998
rtoes -17.9385
lfemur -41.2913 -2.38004 -22.763
ltibia 48.9557
lfoot -8.28798 0.670196
ltoes -22.5388
412
root -0.744417 16.1963 -17.6479 15.0013 -6.8802 1.7226
lowerback -8.5833 3.42125 12.8647
upperback -6.11115 3.67457 1.98916
thorax -1.01828 1.50098 -4.79315
lowerneck -16.7444 4.75224 3.95149
upperneck 27.0675 9.46492 -12.3346
head 12.6255 3.09915 -3.86335
rclavicle -2.11706e-014 1.27222e-014
rhumerus -32.1152 5.88065 -81.7534
rradius 29.0364
rwrist -20.6402
rhand -21.185 -23.8294
rfingers 7.12502
rthumb 5.1957 -53.7457
lclavicle -2.11706e-014 1.27222e-014
lhumerus -49.4154 -6.75943 86.1884
lradius 30.1642
lwrist 32.1596
lhand -0.870883 2.82014
lfingers 7.12502
lthumb 24.756 31.2381
rfemur -30.1864 14.647 18.3974
rtibia 37.0603
rfoot -15.786 -9.92573
rtoes -17.8874
lfemur -41.0408 -2.4183 -22.9395
ltibia 49.7759
lfoot -8.42208 -0.0720271
ltoes -22.4252
413
root -0.742789 16.1952 -17.7128 15.1757 -6.82711 1.77066
lowerback -8.75234 3.31996 12.738
upperback -6.19395 3.52908 2.05238
thorax -1.048 1.42784 -4.66582
lowerneck -16.8155 4.80183 3.99896
upperneck 27.0848 9.51347 -12.3019
head 12.6528 3.12574 -3.85038
rclavicle -1.12313e-014 -4.6118e-014
rhumerus -32.4851 5.3788 -81.3632
rradius 28.1478
rwrist -20.1859
rhand -21.2346 -23.9495
rfingers 7.12502
rthumb 5.14784 -53.8669
lclavicle -1.12313e-014 -4.6118e-014
lhumerus -49.2263 -6.91635 85.9925
lradius 30.3571
lwrist 32.535
lhand -2.28802 2.44048
lfingers 7.12502
lthumb 23.3971 31.0382
rfemur -30.8004 14.6593 18.2483
rtibia 37.3163
rfoot -15.6567 -9.94897
rtoes -17.8277
lfemur -40.7824 -2.47511 -23.1052
ltibia 50.5435
lfoot -8.5499 -0.777722
ltoes -22.3351
414
root -0.741011 16.1939 -17.7773 15.3677 -6.77168 1.80342
lowerback -8.93945 3.22195 12.6208
upperback -6.28148 3.3851 2.10698
thorax -1.07093 1.35535 -4.55209
lowerneck -16.8764 4.85016 4.05051
upperneck 27.0892 9.55648 -12.2674
head 12.6721 3.15135 -3.83795
rclavicle 7.95139e-016 -5.725e-014
rhumerus -32.8651 4.8342 -80.9563
rradius 27.282
rwrist -19.6014
rhand -21.3415 -24.0827
rfingers 7.12502
rthumb 5.04461 -54.0026
lclavicle 7.95139e-016 -5.725e-014
lhumerus -49.0139 -7.05256 85.7571
lradius 30.5315
lwrist 33.0037
lhand -3.76275 2.01208
lfingers 7.12502
lthumb 21.9818 30.783
rfemur -31.4244 14.6623 18.1122
rtibia 37.5577
rfoot -15.5222 -9.96131
rtoes -17.7621
lfemur -40.5018 -2.54308 -23.2568
ltibia 51.2518
lfoot -8.68581 -1.43868
ltoes -22.2563
415
root -0.738697 16.1928 -17.8415 15.5735 -6.72555 1.81821
lowerback -9.13278 3.12849 12.5172
upperback -6.37712 3.24618 2.1563
thorax -1.09687 1.28449 -4.4511
lowerneck -16.9199 4.89681 4.10291
upperneck 27.0838 9.59555 -12.2334
head 12.6834 3.17626 -3.82634
rclavicle -1.59028e-015 -4.13472e-014
rhumerus -33.2699 4.26299 -80.5315
rradius 26.457
rwrist -18.8941
rhand -21.487 -24.2788
rfingers 7.12502
rthumb 4.90416 -54.2021
lclavicle -1.59028e-015 -4.13472e-014
lhumerus -48.788 -7.15636 85.486
lradius 30.6911
lwrist 33.5463
lhand -5.30777 1.56379
lfingers 7.12502
lthumb 20.4977 30.5017
rfemur -32.053 14.6539 17.9909
rtibia 37.7791
rfoot -15.384 -9.94901
rtoes -17.6912
lfemur -40.1917 -2.61371 -23.3952
ltibia 51.8927
lfoot -8.83668 -2.05608
ltoes -22.1679
416
root -0.735947 16.1918 -17.9049 15.7789 -6.68471 1.81783
lowerback -9.32728 3.03396 12.4204
upperback -6.47296 3.10547 2.20664
thorax -1.12195 1.21269 -4.35315
lowerneck -16.9526 4.94352 4.1478
upperneck 27.0662 9.63665 -12.2036
head 12.6876 3.20157 -3.81442
rclavicle 3.18055e-015 7.95139e-015
rhumerus -33.6951 3.68569 -80.0877
rradius 25.676
rwrist -18.0899
rhand -21.6963 -24.5412
rfingers 7.12502
rthumb 4.70207 -54.469
lclavicle 3.18055e-015 7.95139e-015
lhumerus -48.5437 -7.21301 85.1823
lradius 30.8297
lwrist 34.1274
lhand -6.86631 1.03906
lfingers 7.12502
lthumb 18.9994 30.1311
rfemur -32.6624 14.6404 17.8857
rtibia 37.9713
rfoot -15.2404 -9.92222
rtoes -17.6081
lfemur -39.8326 -2.69365 -23.5192
ltibia 52.4555
lfoot -9.00716 -2.63124
ltoes -22.0179
